<svg xmlns="http://www.w3.org/2000/svg" viewBox="0 0 512 512">
  <defs>
    <linearGradient id="g" x1="0%" y1="0%" x2="100%" y2="100%">
      <stop offset="0%" style="stop-color:#7c3aed"/>
      <stop offset="100%" style="stop-color:#a78bfa"/>
    </linearGradient>
  </defs>
  <path fill="url(#g)" d="M394.6 208.2c-5.6-16.4-20.1-28.5-37.7-31.5l-67.5-11.3-24.3-55.7c-6.8-15.6-22.6-25.7-40.1-25.7s-33.3 10.1-40.1 25.7l-24.3 55.7-67.5 11.3c-17.6 3-32.1 15.1-37.7 31.5s-1.1 34.3 10.9 46.5l44.3 44.9-8.5 59.2c-2.8 19.4 7.3 38.7 24.7 47.4 17.3 8.7 38.4 6.5 53.5-5.6L224.9 358l54.9 36.6c15.1 12.1 36.2 14.3 53.5 5.6 17.4-8.7 27.5-28 24.7-47.4l-8.5-59.2 44.3-44.9c12-12.2 16.5-30.1 10.9-46.5zM256 325.1l-49.8 33.2 8.5-58.6c1.8-12.2-3.2-24.5-13.2-31.9l-40.5-41.1 61.6-10.3c12.4-2.1 23.2-9.7 29.2-20.6l22.1-50.7 22.1 50.7c6 10.9 16.8 18.5 29.2 20.6l61.6 10.3-40.5 41.1c-10 7.4-15 19.7-13.2 31.9l8.5 58.6L256 325.1z"/>
</svg>
